<mxfile host="app.diagrams.net" modified="2023-11-29T13:29:17.908Z" agent="Mozilla/5.0 (Windows NT 10.0; Win64; x64) AppleWebKit/537.36 (KHTML, like Gecko) Chrome/119.0.0.0 Safari/537.36 Edg/119.0.0.0" version="22.1.4" etag="0bWWur4ouHoEwlZm8jzb" type="github">
  <diagram name="Page-1" id="JBmFKGHHpb0ipPNXD6Zx">
    <mxGraphModel>
      <root>
        <mxCell id="0" />
        <mxCell id="1" parent="0" />
      </root>
    </mxGraphModel>
  </diagram>
</mxfile>
